<svg width="328" height="74" viewBox="0 0 328 74" fill="none" xmlns="http://www.w3.org/2000/svg">
<g filter="url(#filter0_d_1_731)">
<rect x="10" y="6" width="308" height="54" fill="#92E3A9"/>
</g>
<path d="M123.489 29.6615C123.165 29.0375 122.715 28.5695 122.139 28.2575C121.563 27.9335 120.897 27.7715 120.141 27.7715C119.313 27.7715 118.575 27.9575 117.927 28.3295C117.279 28.7015 116.769 29.2295 116.397 29.9135C116.037 30.5975 115.857 31.3895 115.857 32.2895C115.857 33.1895 116.037 33.9875 116.397 34.6835C116.769 35.3675 117.279 35.8955 117.927 36.2675C118.575 36.6395 119.313 36.8255 120.141 36.8255C121.257 36.8255 122.163 36.5135 122.859 35.8895C123.555 35.2655 123.981 34.4195 124.137 33.3515H119.439V31.7135H126.333V33.3155C126.201 34.2875 125.853 35.1815 125.289 35.9975C124.737 36.8135 124.011 37.4675 123.111 37.9595C122.223 38.4395 121.233 38.6795 120.141 38.6795C118.965 38.6795 117.891 38.4095 116.919 37.8695C115.947 37.3175 115.173 36.5555 114.597 35.5835C114.033 34.6115 113.751 33.5135 113.751 32.2895C113.751 31.0655 114.033 29.9675 114.597 28.9955C115.173 28.0235 115.947 27.2675 116.919 26.7275C117.903 26.1755 118.977 25.8995 120.141 25.8995C121.473 25.8995 122.655 26.2295 123.687 26.8895C124.731 27.5375 125.487 28.4615 125.955 29.6615H123.489ZM137.447 33.3695C137.447 33.7415 137.423 34.0775 137.375 34.3775H129.797C129.857 35.1695 130.151 35.8055 130.679 36.2855C131.207 36.7655 131.855 37.0055 132.623 37.0055C133.727 37.0055 134.507 36.5435 134.963 35.6195H137.177C136.877 36.5315 136.331 37.2815 135.539 37.8695C134.759 38.4455 133.787 38.7335 132.623 38.7335C131.675 38.7335 130.823 38.5235 130.067 38.1035C129.323 37.6715 128.735 37.0715 128.303 36.3035C127.883 35.5235 127.673 34.6235 127.673 33.6035C127.673 32.5835 127.877 31.6895 128.285 30.9215C128.705 30.1415 129.287 29.5415 130.031 29.1215C130.787 28.7015 131.651 28.4915 132.623 28.4915C133.559 28.4915 134.393 28.6955 135.125 29.1035C135.857 29.5115 136.427 30.0875 136.835 30.8315C137.243 31.5635 137.447 32.4095 137.447 33.3695ZM135.305 32.7215C135.293 31.9655 135.023 31.3595 134.495 30.9035C133.967 30.4475 133.313 30.2195 132.533 30.2195C131.825 30.2195 131.219 30.4475 130.715 30.9035C130.211 31.3475 129.911 31.9535 129.815 32.7215H135.305ZM141.86 30.3275V35.8175C141.86 36.1895 141.944 36.4595 142.112 36.6275C142.292 36.7835 142.592 36.8615 143.012 36.8615H144.272V38.5715H142.652C141.728 38.5715 141.02 38.3555 140.528 37.9235C140.036 37.4915 139.79 36.7895 139.79 35.8175V30.3275H138.62V28.6535H139.79V26.1875H141.86V28.6535H144.272V30.3275H141.86ZM154.439 38.7335C153.659 38.7335 152.957 38.5955 152.333 38.3195C151.721 38.0315 151.235 37.6475 150.875 37.1675C150.515 36.6755 150.323 36.1295 150.299 35.5295H152.423C152.459 35.9495 152.657 36.3035 153.017 36.5915C153.389 36.8675 153.851 37.0055 154.403 37.0055C154.979 37.0055 155.423 36.8975 155.735 36.6815C156.059 36.4535 156.221 36.1655 156.221 35.8175C156.221 35.4455 156.041 35.1695 155.681 34.9895C155.333 34.8095 154.775 34.6115 154.007 34.3955C153.263 34.1915 152.657 33.9935 152.189 33.8015C151.721 33.6095 151.313 33.3155 150.965 32.9195C150.629 32.5235 150.461 32.0015 150.461 31.3535C150.461 30.8255 150.617 30.3455 150.929 29.9135C151.241 29.4695 151.685 29.1215 152.261 28.8695C152.849 28.6175 153.521 28.4915 154.277 28.4915C155.405 28.4915 156.311 28.7795 156.995 29.3555C157.691 29.9195 158.063 30.6935 158.111 31.6775H156.059C156.023 31.2335 155.843 30.8795 155.519 30.6155C155.195 30.3515 154.757 30.2195 154.205 30.2195C153.665 30.2195 153.251 30.3215 152.963 30.5255C152.675 30.7295 152.531 30.9995 152.531 31.3355C152.531 31.5995 152.627 31.8215 152.819 32.0015C153.011 32.1815 153.245 32.3255 153.521 32.4335C153.797 32.5295 154.205 32.6555 154.745 32.8115C155.465 33.0035 156.053 33.2015 156.509 33.4055C156.977 33.5975 157.379 33.8855 157.715 34.2695C158.051 34.6535 158.225 35.1635 158.237 35.7995C158.237 36.3635 158.081 36.8675 157.769 37.3115C157.457 37.7555 157.013 38.1035 156.437 38.3555C155.873 38.6075 155.207 38.7335 154.439 38.7335ZM162.848 30.3275V35.8175C162.848 36.1895 162.932 36.4595 163.1 36.6275C163.28 36.7835 163.58 36.8615 164 36.8615H165.26V38.5715H163.64C162.716 38.5715 162.008 38.3555 161.516 37.9235C161.024 37.4915 160.778 36.7895 160.778 35.8175V30.3275H159.608V28.6535H160.778V26.1875H162.848V28.6535H165.26V30.3275H162.848ZM166.468 33.5675C166.468 32.5715 166.672 31.6895 167.08 30.9215C167.5 30.1535 168.064 29.5595 168.772 29.1395C169.492 28.7075 170.284 28.4915 171.148 28.4915C171.928 28.4915 172.606 28.6475 173.182 28.9595C173.77 29.2595 174.238 29.6375 174.586 30.0935V28.6535H176.656V38.5715H174.586V37.0955C174.238 37.5635 173.764 37.9535 173.164 38.2655C172.564 38.5775 171.88 38.7335 171.112 38.7335C170.26 38.7335 169.48 38.5175 168.772 38.0855C168.064 37.6415 167.5 37.0295 167.08 36.2495C166.672 35.4575 166.468 34.5635 166.468 33.5675ZM174.586 33.6035C174.586 32.9195 174.442 32.3255 174.154 31.8215C173.878 31.3175 173.512 30.9335 173.056 30.6695C172.6 30.4055 172.108 30.2735 171.58 30.2735C171.052 30.2735 170.56 30.4055 170.104 30.6695C169.648 30.9215 169.276 31.2995 168.988 31.8035C168.712 32.2955 168.574 32.8835 168.574 33.5675C168.574 34.2515 168.712 34.8515 168.988 35.3675C169.276 35.8835 169.648 36.2795 170.104 36.5555C170.572 36.8195 171.064 36.9515 171.58 36.9515C172.108 36.9515 172.6 36.8195 173.056 36.5555C173.512 36.2915 173.878 35.9075 174.154 35.4035C174.442 34.8875 174.586 34.2875 174.586 33.6035ZM181.403 30.0935C181.703 29.5895 182.099 29.1995 182.591 28.9235C183.095 28.6355 183.689 28.4915 184.373 28.4915V30.6155H183.851C183.047 30.6155 182.435 30.8195 182.015 31.2275C181.607 31.6355 181.403 32.3435 181.403 33.3515V38.5715H179.351V28.6535H181.403V30.0935ZM188.653 30.3275V35.8175C188.653 36.1895 188.737 36.4595 188.905 36.6275C189.085 36.7835 189.385 36.8615 189.805 36.8615H191.065V38.5715H189.445C188.521 38.5715 187.813 38.3555 187.321 37.9235C186.829 37.4915 186.583 36.7895 186.583 35.8175V30.3275H185.413V28.6535H186.583V26.1875H188.653V28.6535H191.065V30.3275H188.653ZM202.046 33.3695C202.046 33.7415 202.022 34.0775 201.974 34.3775H194.396C194.456 35.1695 194.75 35.8055 195.278 36.2855C195.806 36.7655 196.454 37.0055 197.222 37.0055C198.326 37.0055 199.106 36.5435 199.562 35.6195H201.776C201.476 36.5315 200.93 37.2815 200.138 37.8695C199.358 38.4455 198.386 38.7335 197.222 38.7335C196.274 38.7335 195.422 38.5235 194.666 38.1035C193.922 37.6715 193.334 37.0715 192.902 36.3035C192.482 35.5235 192.272 34.6235 192.272 33.6035C192.272 32.5835 192.476 31.6895 192.884 30.9215C193.304 30.1415 193.886 29.5415 194.63 29.1215C195.386 28.7015 196.25 28.4915 197.222 28.4915C198.158 28.4915 198.992 28.6955 199.724 29.1035C200.456 29.5115 201.026 30.0875 201.434 30.8315C201.842 31.5635 202.046 32.4095 202.046 33.3695ZM199.904 32.7215C199.892 31.9655 199.622 31.3595 199.094 30.9035C198.566 30.4475 197.912 30.2195 197.132 30.2195C196.424 30.2195 195.818 30.4475 195.314 30.9035C194.81 31.3475 194.51 31.9535 194.414 32.7215H199.904ZM203.382 33.5675C203.382 32.5715 203.586 31.6895 203.994 30.9215C204.414 30.1535 204.978 29.5595 205.686 29.1395C206.406 28.7075 207.204 28.4915 208.08 28.4915C208.728 28.4915 209.364 28.6355 209.988 28.9235C210.624 29.1995 211.128 29.5715 211.5 30.0395V25.2515H213.57V38.5715H211.5V37.0775C211.164 37.5575 210.696 37.9535 210.096 38.2655C209.508 38.5775 208.83 38.7335 208.062 38.7335C207.198 38.7335 206.406 38.5175 205.686 38.0855C204.978 37.6415 204.414 37.0295 203.994 36.2495C203.586 35.4575 203.382 34.5635 203.382 33.5675ZM211.5 33.6035C211.5 32.9195 211.356 32.3255 211.068 31.8215C210.792 31.3175 210.426 30.9335 209.97 30.6695C209.514 30.4055 209.022 30.2735 208.494 30.2735C207.966 30.2735 207.474 30.4055 207.018 30.6695C206.562 30.9215 206.19 31.2995 205.902 31.8035C205.626 32.2955 205.488 32.8835 205.488 33.5675C205.488 34.2515 205.626 34.8515 205.902 35.3675C206.19 35.8835 206.562 36.2795 207.018 36.5555C207.486 36.8195 207.978 36.9515 208.494 36.9515C209.022 36.9515 209.514 36.8195 209.97 36.5555C210.426 36.2915 210.792 35.9075 211.068 35.4035C211.356 34.8875 211.5 34.2875 211.5 33.6035Z" fill="white"/>
<defs>
<filter id="filter0_d_1_731" x="0" y="0" width="328" height="74" filterUnits="userSpaceOnUse" color-interpolation-filters="sRGB">
<feFlood flood-opacity="0" result="BackgroundImageFix"/>
<feColorMatrix in="SourceAlpha" type="matrix" values="0 0 0 0 0 0 0 0 0 0 0 0 0 0 0 0 0 0 127 0" result="hardAlpha"/>
<feOffset dy="4"/>
<feGaussianBlur stdDeviation="5"/>
<feComposite in2="hardAlpha" operator="out"/>
<feColorMatrix type="matrix" values="0 0 0 0 0.631373 0 0 0 0 0.764706 0 0 0 0 0.988235 0 0 0 1 0"/>
<feBlend mode="normal" in2="BackgroundImageFix" result="effect1_dropShadow_1_731"/>
<feBlend mode="normal" in="SourceGraphic" in2="effect1_dropShadow_1_731" result="shape"/>
</filter>
</defs>
</svg>
