<svg width="328" height="74" viewBox="0 0 328 74" fill="none" xmlns="http://www.w3.org/2000/svg">
<g filter="url(#filter0_d_1_10)">
<rect x="10" y="6" width="308" height="54" fill="#92E3A9"/>
</g>
<path d="M123.155 32.2895C123.155 31.0655 123.437 29.9675 124.001 28.9955C124.577 28.0235 125.351 27.2675 126.323 26.7275C127.307 26.1755 128.381 25.8995 129.545 25.8995C130.877 25.8995 132.059 26.2295 133.091 26.8895C134.135 27.5375 134.891 28.4615 135.359 29.6615H132.893C132.569 29.0015 132.119 28.5095 131.543 28.1855C130.967 27.8615 130.301 27.6995 129.545 27.6995C128.717 27.6995 127.979 27.8855 127.331 28.2575C126.683 28.6295 126.173 29.1635 125.801 29.8595C125.441 30.5555 125.261 31.3655 125.261 32.2895C125.261 33.2135 125.441 34.0235 125.801 34.7195C126.173 35.4155 126.683 35.9555 127.331 36.3395C127.979 36.7115 128.717 36.8975 129.545 36.8975C130.301 36.8975 130.967 36.7355 131.543 36.4115C132.119 36.0875 132.569 35.5955 132.893 34.9355H135.359C134.891 36.1355 134.135 37.0595 133.091 37.7075C132.059 38.3555 130.877 38.6795 129.545 38.6795C128.369 38.6795 127.295 38.4095 126.323 37.8695C125.351 37.3175 124.577 36.5555 124.001 35.5835C123.437 34.6115 123.155 33.5135 123.155 32.2895ZM142.063 38.7335C141.127 38.7335 140.281 38.5235 139.525 38.1035C138.769 37.6715 138.175 37.0715 137.743 36.3035C137.311 35.5235 137.095 34.6235 137.095 33.6035C137.095 32.5955 137.317 31.7015 137.761 30.9215C138.205 30.1415 138.811 29.5415 139.579 29.1215C140.347 28.7015 141.205 28.4915 142.153 28.4915C143.101 28.4915 143.959 28.7015 144.727 29.1215C145.495 29.5415 146.101 30.1415 146.545 30.9215C146.989 31.7015 147.211 32.5955 147.211 33.6035C147.211 34.6115 146.983 35.5055 146.527 36.2855C146.071 37.0655 145.447 37.6715 144.655 38.1035C143.875 38.5235 143.011 38.7335 142.063 38.7335ZM142.063 36.9515C142.591 36.9515 143.083 36.8255 143.539 36.5735C144.007 36.3215 144.385 35.9435 144.673 35.4395C144.961 34.9355 145.105 34.3235 145.105 33.6035C145.105 32.8835 144.967 32.2775 144.691 31.7855C144.415 31.2815 144.049 30.9035 143.593 30.6515C143.137 30.3995 142.645 30.2735 142.117 30.2735C141.589 30.2735 141.097 30.3995 140.641 30.6515C140.197 30.9035 139.843 31.2815 139.579 31.7855C139.315 32.2775 139.183 32.8835 139.183 33.6035C139.183 34.6715 139.453 35.4995 139.993 36.0875C140.545 36.6635 141.235 36.9515 142.063 36.9515ZM154.243 28.4915C155.023 28.4915 155.719 28.6535 156.331 28.9775C156.955 29.3015 157.441 29.7815 157.789 30.4175C158.137 31.0535 158.311 31.8215 158.311 32.7215V38.5715H156.277V33.0275C156.277 32.1395 156.055 31.4615 155.611 30.9935C155.167 30.5135 154.561 30.2735 153.793 30.2735C153.025 30.2735 152.413 30.5135 151.957 30.9935C151.513 31.4615 151.291 32.1395 151.291 33.0275V38.5715H149.239V28.6535H151.291V29.7875C151.627 29.3795 152.053 29.0615 152.569 28.8335C153.097 28.6055 153.655 28.4915 154.243 28.4915ZM163.323 30.3275V35.8175C163.323 36.1895 163.407 36.4595 163.575 36.6275C163.755 36.7835 164.055 36.8615 164.475 36.8615H165.735V38.5715H164.115C163.191 38.5715 162.483 38.3555 161.991 37.9235C161.499 37.4915 161.253 36.7895 161.253 35.8175V30.3275H160.083V28.6535H161.253V26.1875H163.323V28.6535H165.735V30.3275H163.323ZM168.67 27.3395C168.298 27.3395 167.986 27.2135 167.734 26.9615C167.482 26.7095 167.356 26.3975 167.356 26.0255C167.356 25.6535 167.482 25.3415 167.734 25.0895C167.986 24.8375 168.298 24.7115 168.67 24.7115C169.03 24.7115 169.336 24.8375 169.588 25.0895C169.84 25.3415 169.966 25.6535 169.966 26.0255C169.966 26.3975 169.84 26.7095 169.588 26.9615C169.336 27.2135 169.03 27.3395 168.67 27.3395ZM169.678 28.6535V38.5715H167.626V28.6535H169.678ZM177.376 28.4915C178.156 28.4915 178.852 28.6535 179.464 28.9775C180.088 29.3015 180.574 29.7815 180.922 30.4175C181.27 31.0535 181.444 31.8215 181.444 32.7215V38.5715H179.41V33.0275C179.41 32.1395 179.188 31.4615 178.744 30.9935C178.3 30.5135 177.694 30.2735 176.926 30.2735C176.158 30.2735 175.546 30.5135 175.09 30.9935C174.646 31.4615 174.424 32.1395 174.424 33.0275V38.5715H172.372V28.6535H174.424V29.7875C174.76 29.3795 175.186 29.0615 175.702 28.8335C176.23 28.6055 176.788 28.4915 177.376 28.4915ZM193.044 28.6535V38.5715H190.992V37.4015C190.668 37.8095 190.242 38.1335 189.714 38.3735C189.198 38.6015 188.646 38.7155 188.058 38.7155C187.278 38.7155 186.576 38.5535 185.952 38.2295C185.34 37.9055 184.854 37.4255 184.494 36.7895C184.146 36.1535 183.972 35.3855 183.972 34.4855V28.6535H186.006V34.1795C186.006 35.0675 186.228 35.7515 186.672 36.2315C187.116 36.6995 187.722 36.9335 188.49 36.9335C189.258 36.9335 189.864 36.6995 190.308 36.2315C190.764 35.7515 190.992 35.0675 190.992 34.1795V28.6535H193.044ZM204.841 33.3695C204.841 33.7415 204.817 34.0775 204.769 34.3775H197.191C197.251 35.1695 197.545 35.8055 198.073 36.2855C198.601 36.7655 199.249 37.0055 200.017 37.0055C201.121 37.0055 201.901 36.5435 202.357 35.6195H204.571C204.271 36.5315 203.725 37.2815 202.933 37.8695C202.153 38.4455 201.181 38.7335 200.017 38.7335C199.069 38.7335 198.217 38.5235 197.461 38.1035C196.717 37.6715 196.129 37.0715 195.697 36.3035C195.277 35.5235 195.067 34.6235 195.067 33.6035C195.067 32.5835 195.271 31.6895 195.679 30.9215C196.099 30.1415 196.681 29.5415 197.425 29.1215C198.181 28.7015 199.045 28.4915 200.017 28.4915C200.953 28.4915 201.787 28.6955 202.519 29.1035C203.251 29.5115 203.821 30.0875 204.229 30.8315C204.637 31.5635 204.841 32.4095 204.841 33.3695ZM202.699 32.7215C202.687 31.9655 202.417 31.3595 201.889 30.9035C201.361 30.4475 200.707 30.2195 199.927 30.2195C199.219 30.2195 198.613 30.4475 198.109 30.9035C197.605 31.3475 197.305 31.9535 197.209 32.7215H202.699Z" fill="white"/>
<defs>
<filter id="filter0_d_1_10" x="0" y="0" width="328" height="74" filterUnits="userSpaceOnUse" color-interpolation-filters="sRGB">
<feFlood flood-opacity="0" result="BackgroundImageFix"/>
<feColorMatrix in="SourceAlpha" type="matrix" values="0 0 0 0 0 0 0 0 0 0 0 0 0 0 0 0 0 0 127 0" result="hardAlpha"/>
<feOffset dy="4"/>
<feGaussianBlur stdDeviation="5"/>
<feComposite in2="hardAlpha" operator="out"/>
<feColorMatrix type="matrix" values="0 0 0 0 0.631373 0 0 0 0 0.764706 0 0 0 0 0.988235 0 0 0 1 0"/>
<feBlend mode="normal" in2="BackgroundImageFix" result="effect1_dropShadow_1_10"/>
<feBlend mode="normal" in="SourceGraphic" in2="effect1_dropShadow_1_10" result="shape"/>
</filter>
</defs>
</svg>
